<svg width="30" height="30" viewBox="0 0 30 30" fill="none" xmlns="http://www.w3.org/2000/svg">
<g clip-path="url(#clip0_133_2933)">
<path d="M3.75 10C3.75 9.00544 4.14509 8.05161 4.84835 7.34835C5.55161 6.64509 6.50544 6.25 7.5 6.25H22.5C23.4946 6.25 24.4484 6.64509 25.1517 7.34835C25.8549 8.05161 26.25 9.00544 26.25 10V20C26.25 20.9946 25.8549 21.9484 25.1517 22.6517C24.4484 23.3549 23.4946 23.75 22.5 23.75H7.5C6.50544 23.75 5.55161 23.3549 4.84835 22.6517C4.14509 21.9484 3.75 20.9946 3.75 20V10Z" stroke="#2A0EEE" stroke-width="2" stroke-linecap="round" stroke-linejoin="round"/>
<path d="M3.75 12.5H26.25" stroke="#2A0EEE" stroke-width="2" stroke-linecap="round" stroke-linejoin="round"/>
<path d="M8.75 18.75H8.76333" stroke="#2A0EEE" stroke-width="2" stroke-linecap="round" stroke-linejoin="round"/>
<path d="M13.75 18.75H16.25" stroke="#2A0EEE" stroke-width="2" stroke-linecap="round" stroke-linejoin="round"/>
</g>
<defs>
<clipPath id="clip0_133_2933">
<rect width="30" height="30" fill="white"/>
</clipPath>
</defs>
</svg>
