<svg width="265" height="265" viewBox="0 0 265 265" fill="none" xmlns="http://www.w3.org/2000/svg">
<ellipse cx="5.21468" cy="5.21622" rx="5.21468" ry="5.21622" transform="matrix(0.997132 0.0756848 -0.07564 0.997135 89.2943 5.48038)" fill="#E9D7FE"/>
<ellipse cx="5.21468" cy="5.21622" rx="5.21468" ry="5.21622" transform="matrix(0.997132 0.0756848 -0.07564 0.997135 108.487 0.659698)" fill="#D6F2FF"/>
<ellipse cx="5.21468" cy="5.21622" rx="5.21468" ry="5.21622" transform="matrix(0.997123 0.0757953 -0.0755297 0.997144 127.364 3.05176e-05)" fill="#D8FFE3"/>
<ellipse cx="5.21468" cy="5.21622" rx="5.21468" ry="5.21622" transform="matrix(0.997132 0.0756848 -0.07564 0.997135 146.083 1.42087)" fill="#E7D6FF"/>
<ellipse cx="5.21468" cy="5.21622" rx="5.21468" ry="5.21622" transform="matrix(0.997132 0.0756848 -0.07564 0.997135 165.684 5.0011)" fill="#FFE2D6"/>
<ellipse cx="5.21468" cy="5.21622" rx="5.21468" ry="5.21622" transform="matrix(0.997132 0.0756848 -0.07564 0.997135 183.929 12.6635)" fill="#FFD6DC"/>
<ellipse cx="5.21468" cy="5.21622" rx="5.21468" ry="5.21622" transform="matrix(0.997132 0.0756848 -0.07564 0.997135 199.858 23.2886)" fill="#FFF8D7"/>
<ellipse cx="5.21468" cy="5.21622" rx="5.21468" ry="5.21622" transform="matrix(0.997132 0.0756848 -0.07564 0.997135 214.668 34.8753)" fill="#E8D6FF"/>
<ellipse cx="5.21468" cy="5.21622" rx="5.21468" ry="5.21622" transform="matrix(0.997132 0.0756848 -0.07564 0.997135 225.082 49.2669)" fill="#D6E7FF"/>
<ellipse cx="5.21468" cy="5.21622" rx="5.21468" ry="5.21622" transform="matrix(0.997132 0.0756848 -0.07564 0.997135 236.693 61.6569)" fill="#FFF9D9"/>
<ellipse cx="5.21468" cy="5.21622" rx="5.21468" ry="5.21622" transform="matrix(0.997132 0.0756848 -0.07564 0.997135 243.908 76.8519)" fill="#FFD6E7"/>
<ellipse cx="5.21468" cy="5.21622" rx="5.21468" ry="5.21622" transform="matrix(0.997132 0.0756848 -0.07564 0.997135 248.885 93.9696)" fill="#FFE8D6"/>
<ellipse cx="5.21468" cy="5.21622" rx="5.21468" ry="5.21622" transform="matrix(0.997132 0.0756848 -0.07564 0.997135 252.743 112.049)" fill="#E9D7FE"/>
<ellipse cx="5.21468" cy="5.21622" rx="5.21468" ry="5.21622" transform="matrix(0.997132 0.0756848 -0.07564 0.997135 254.601 128.93)" fill="#D6F2FF"/>
<ellipse cx="5.21468" cy="5.21622" rx="5.21468" ry="5.21622" transform="matrix(0.997132 0.0756848 -0.07564 0.997135 251.1 147.496)" fill="#D8FFE3"/>
<ellipse cx="5.21468" cy="5.21622" rx="5.21468" ry="5.21622" transform="matrix(0.997132 0.0756848 -0.07564 0.997135 247.758 163.982)" fill="#E7D6FF"/>
<ellipse cx="5.21468" cy="5.21622" rx="5.21468" ry="5.21622" transform="matrix(0.997132 0.0756848 -0.07564 0.997135 242.335 180.311)" fill="#FFE2D6"/>
<ellipse cx="5.21468" cy="5.21622" rx="5.21468" ry="5.21622" transform="matrix(0.997132 0.0756848 -0.07564 0.997135 235.07 193.36)" fill="#FFD6DC"/>
<ellipse cx="5.21468" cy="5.21622" rx="5.21468" ry="5.21622" transform="matrix(0.997132 0.0756848 -0.07564 0.997135 224.606 207.214)" fill="#FFF8D7"/>
<ellipse cx="5.21468" cy="5.21622" rx="5.21468" ry="5.21622" transform="matrix(0.997132 0.0756848 -0.07564 0.997135 214.299 218.986)" fill="#E8D6FF"/>
<ellipse cx="5.21468" cy="5.21622" rx="5.21468" ry="5.21622" transform="matrix(0.997132 0.0756848 -0.07564 0.997135 199.912 229.403)" fill="#D6E7FF"/>
<ellipse cx="5.21468" cy="5.21622" rx="5.21468" ry="5.21622" transform="matrix(0.997132 0.0756848 -0.07564 0.997135 185.682 237.739)" fill="#FFF9D9"/>
<ellipse cx="5.21468" cy="5.21622" rx="5.21468" ry="5.21622" transform="matrix(0.997132 0.0756848 -0.07564 0.997135 171.532 245.035)" fill="#FFD6E7"/>
<ellipse cx="5.21468" cy="5.21622" rx="5.21468" ry="5.21622" transform="matrix(0.997132 0.0756848 -0.07564 0.997135 156.499 250.171)" fill="#FFE8D6"/>
<ellipse cx="5.21468" cy="5.21622" rx="5.21468" ry="5.21622" transform="matrix(0.997132 0.0756848 -0.07564 0.997135 139.623 252.029)" fill="#E9D7FE"/>
<ellipse cx="5.21468" cy="5.21622" rx="5.21468" ry="5.21622" transform="matrix(0.997132 0.0756848 -0.07564 0.997135 121.707 253.808)" fill="#D6F2FF"/>
<ellipse cx="5.21468" cy="5.21622" rx="5.21468" ry="5.21622" transform="matrix(0.997132 0.0756848 -0.07564 0.997135 105.226 250.465)" fill="#D8FFE3"/>
<ellipse cx="5.21468" cy="5.21622" rx="5.21468" ry="5.21622" transform="matrix(0.997132 0.0756848 -0.07564 0.997135 88.8238 246.081)" fill="#E7D6FF"/>
<ellipse cx="5.21468" cy="5.21622" rx="5.21468" ry="5.21622" transform="matrix(0.997132 0.0756848 -0.07564 0.997135 71.6182 238.497)" fill="#FFE2D6"/>
<ellipse cx="5.21468" cy="5.21622" rx="5.21468" ry="5.21622" transform="matrix(0.997132 0.0756848 -0.07564 0.997135 56.5714 230.032)" fill="#FFD6DC"/>
<ellipse cx="5.21468" cy="5.21622" rx="5.21468" ry="5.21622" transform="matrix(0.997132 0.0756848 -0.07564 0.997135 40.7214 218.366)" fill="#FFF9D9"/>
<ellipse cx="5.21468" cy="5.21622" rx="5.21468" ry="5.21622" transform="matrix(0.997132 0.0756848 -0.07564 0.997135 27.1091 204.778)" fill="#FFD6E7"/>
<ellipse cx="5.21468" cy="5.21622" rx="5.21468" ry="5.21622" transform="matrix(0.997132 0.0756848 -0.07564 0.997135 17.8144 189.425)" fill="#FFE8D6"/>
<ellipse cx="5.21468" cy="5.21622" rx="5.21468" ry="5.21622" transform="matrix(0.997132 0.0756848 -0.07564 0.997135 10.6785 173.19)" fill="#E9D7FE"/>
<ellipse cx="5.21468" cy="5.21622" rx="5.21468" ry="5.21622" transform="matrix(0.997132 0.0756848 -0.07564 0.997135 5.62247 157.112)" fill="#D6F2FF"/>
<ellipse cx="5.21468" cy="5.21622" rx="5.21468" ry="5.21622" transform="matrix(0.997132 0.0756848 -0.07564 0.997135 1.60641 141.114)" fill="#D8FFE3"/>
<ellipse cx="5.21468" cy="5.21622" rx="5.21468" ry="5.21622" transform="matrix(0.997132 0.0756848 -0.07564 0.997135 0.789093 124.312)" fill="#E7D6FF"/>
<ellipse cx="5.21468" cy="5.21622" rx="5.21468" ry="5.21622" transform="matrix(0.997132 0.0756848 -0.07564 0.997135 2.13062 106.628)" fill="#FFE2D6"/>
<ellipse cx="5.21468" cy="5.21622" rx="5.21468" ry="5.21622" transform="matrix(0.997132 0.0756848 -0.07564 0.997135 6.513 90.2204)" fill="#FFD6DC"/>
<ellipse cx="5.21468" cy="5.21622" rx="5.21468" ry="5.21622" transform="matrix(0.997132 0.0756848 -0.07564 0.997135 13.1331 71.8905)" fill="#FFF8D7"/>
<ellipse cx="5.21468" cy="5.21622" rx="5.21468" ry="5.21622" transform="matrix(0.997132 0.0756848 -0.07564 0.997135 22.6364 56.9181)" fill="#FFF8D7"/>
<ellipse cx="5.21468" cy="5.21622" rx="5.21468" ry="5.21622" transform="matrix(0.997132 0.0756848 -0.07564 0.997135 34.2984 41.0634)" fill="#D6E7FF"/>
<ellipse cx="5.21468" cy="5.21622" rx="5.21468" ry="5.21622" transform="matrix(0.997132 0.0756848 -0.07564 0.997135 47.8036 28.4873)" fill="#FFF9D9"/>
<ellipse cx="5.21468" cy="5.21622" rx="5.21468" ry="5.21622" transform="matrix(0.997132 0.0756848 -0.07564 0.997135 62.1909 18.0706)" fill="#FFD6E7"/>
<ellipse cx="5.21468" cy="5.21622" rx="5.21468" ry="5.21622" transform="matrix(0.997132 0.0756848 -0.07564 0.997135 75.3015 10.6958)" fill="#FFE8D6"/>
<ellipse cx="92.2666" cy="30.0151" rx="5.21467" ry="5.21623" fill="#FFE2D6"/>
<ellipse cx="108.954" cy="24.7989" rx="5.21467" ry="5.21623" fill="#FFD6DC"/>
<ellipse cx="125.641" cy="22.7124" rx="5.21467" ry="5.21623" fill="#FFF9D9"/>
<ellipse cx="142.327" cy="22.7124" rx="5.21467" ry="5.21623" fill="#FFD6E7"/>
<ellipse cx="159.014" cy="24.7989" rx="5.21467" ry="5.21623" fill="#FFE8D6"/>
<ellipse cx="175.701" cy="30.0151" rx="5.21467" ry="5.21623" fill="#E9D7FE"/>
<ellipse cx="190.302" cy="38.361" rx="5.21467" ry="5.21623" fill="#D6F2FF"/>
<ellipse cx="203.861" cy="47.7503" rx="5.21467" ry="5.21623" fill="#D8FFE3"/>
<ellipse cx="214.29" cy="59.226" rx="5.21467" ry="5.21623" fill="#E7D6FF"/>
<ellipse cx="224.719" cy="69.6584" rx="5.21467" ry="5.21623" fill="#FFE2D6"/>
<ellipse cx="232.02" cy="82.1773" rx="5.21467" ry="5.21623" fill="#FFD6DC"/>
<ellipse cx="237.235" cy="96.7828" rx="5.21467" ry="5.21623" fill="#FFF8D7"/>
<ellipse cx="242.449" cy="112.431" rx="5.21467" ry="5.21623" fill="#E8D6FF"/>
<ellipse cx="244.535" cy="127.037" rx="5.21467" ry="5.21623" fill="#D6E7FF"/>
<ellipse cx="243.492" cy="142.686" rx="5.21467" ry="5.21623" fill="#FFF9D9"/>
<ellipse cx="241.406" cy="157.291" rx="5.21467" ry="5.21623" fill="#FFD6E7"/>
<ellipse cx="237.235" cy="171.896" rx="5.21467" ry="5.21623" fill="#FFE8D6"/>
<ellipse cx="232.02" cy="184.415" rx="5.21467" ry="5.21623" fill="#E9D7FE"/>
<ellipse cx="223.676" cy="196.934" rx="5.21467" ry="5.21623" fill="#D6F2FF"/>
<ellipse cx="215.333" cy="207.367" rx="5.21467" ry="5.21623" fill="#D8FFE3"/>
<ellipse cx="203.861" cy="217.799" rx="5.21467" ry="5.21623" fill="#E7D6FF"/>
<ellipse cx="192.388" cy="226.145" rx="5.21467" ry="5.21623" fill="#FFE2D6"/>
<ellipse cx="179.873" cy="233.448" rx="5.21467" ry="5.21623" fill="#FFD6DC"/>
<ellipse cx="167.358" cy="238.664" rx="5.21467" ry="5.21623" fill="#FFF8D7"/>
<ellipse cx="152.757" cy="241.794" rx="5.21467" ry="5.21623" fill="#E8D6FF"/>
<ellipse cx="137.113" cy="243.88" rx="5.21467" ry="5.21623" fill="#D6E7FF"/>
<ellipse cx="122.512" cy="242.837" rx="5.21467" ry="5.21623" fill="#FFF9D9"/>
<ellipse cx="107.911" cy="239.707" rx="5.21467" ry="5.21623" fill="#FFD6E7"/>
<ellipse cx="92.2666" cy="234.491" rx="5.21467" ry="5.21623" fill="#FFE8D6"/>
<ellipse cx="78.7085" cy="228.232" rx="5.21467" ry="5.21623" fill="#E9D7FE"/>
<ellipse cx="64.1074" cy="218.843" rx="5.21467" ry="5.21623" fill="#D6F2FF"/>
<ellipse cx="51.5921" cy="207.367" rx="5.21467" ry="5.21623" fill="#D8FFE3"/>
<ellipse cx="42.2057" cy="194.848" rx="5.21467" ry="5.21623" fill="#E7D6FF"/>
<ellipse cx="34.9052" cy="181.286" rx="5.21467" ry="5.21623" fill="#FFE2D6"/>
<ellipse cx="29.6905" cy="167.723" rx="5.21467" ry="5.21623" fill="#FFD6DC"/>
<ellipse cx="25.5188" cy="154.161" rx="5.21467" ry="5.21623" fill="#FFF8D7"/>
<ellipse cx="23.4329" cy="139.556" rx="5.21467" ry="5.21623" fill="#E8D6FF"/>
<ellipse cx="23.4329" cy="123.907" rx="5.21467" ry="5.21623" fill="#D6E7FF"/>
<ellipse cx="26.5617" cy="109.302" rx="5.21467" ry="5.21623" fill="#FFF9D9"/>
<ellipse cx="30.7335" cy="92.6098" rx="5.21467" ry="5.21623" fill="#FFD6E7"/>
<ellipse cx="38.034" cy="79.0476" rx="5.21467" ry="5.21623" fill="#FFE8D6"/>
<ellipse cx="47.4204" cy="64.4422" rx="5.21467" ry="5.21623" fill="#E9D7FE"/>
<ellipse cx="57.8497" cy="52.9665" rx="5.21467" ry="5.21623" fill="#D6F2FF"/>
<ellipse cx="70.365" cy="42.534" rx="5.21467" ry="5.21623" fill="#D8FFE3"/>
<ellipse cx="80.7943" cy="35.2313" rx="5.21467" ry="5.21623" fill="#E7D6FF"/>
</svg>
