<svg width="26" height="26" viewBox="0 0 26 26" fill="none" xmlns="http://www.w3.org/2000/svg">
<path d="M4.33337 7.58325H21.6667" stroke="#FF3B30" stroke-width="2" stroke-linecap="round" stroke-linejoin="round"/>
<path d="M10.8334 11.9167V18.4167" stroke="#FF3B30" stroke-width="2" stroke-linecap="round" stroke-linejoin="round"/>
<path d="M15.1666 11.9167V18.4167" stroke="#FF3B30" stroke-width="2" stroke-linecap="round" stroke-linejoin="round"/>
<path d="M5.41663 7.58325L6.49996 20.5833C6.49996 21.1579 6.72823 21.709 7.13456 22.1153C7.54089 22.5216 8.09199 22.7499 8.66663 22.7499H17.3333C17.9079 22.7499 18.459 22.5216 18.8654 22.1153C19.2717 21.709 19.5 21.1579 19.5 20.5833L20.5833 7.58325" stroke="#FF3B30" stroke-width="2" stroke-linecap="round" stroke-linejoin="round"/>
<path d="M9.75 7.58333V4.33333C9.75 4.04602 9.86414 3.77047 10.0673 3.5673C10.2705 3.36414 10.546 3.25 10.8333 3.25H15.1667C15.454 3.25 15.7295 3.36414 15.9327 3.5673C16.1359 3.77047 16.25 4.04602 16.25 4.33333V7.58333" stroke="#FF3B30" stroke-width="2" stroke-linecap="round" stroke-linejoin="round"/>
</svg>
