<svg width="72" height="72" viewBox="0 0 72 72" fill="none" xmlns="http://www.w3.org/2000/svg">
<g clip-path="url(#clip0_141_2110)">
<path d="M36.0001 5.00977C38.8651 5.00977 41.5351 6.41077 43.1701 8.75077L43.4851 9.23077L67.8271 49.8748C68.5668 51.156 68.9693 52.604 68.9969 54.0832C69.0244 55.5624 68.6761 57.0244 67.9845 58.3323C67.293 59.6402 66.2808 60.7512 65.0428 61.5612C63.8048 62.3712 62.3814 62.8538 60.9061 62.9638L60.3211 62.9878H11.6461C10.1692 62.9711 8.72058 62.5806 7.43549 61.8526C6.15039 61.1246 5.07069 60.0828 4.29718 58.8246C3.52366 57.5664 3.08155 56.1327 3.01211 54.6573C2.94267 53.182 3.24816 51.7131 3.90007 50.3878L4.19707 49.8328L28.5271 9.21877C29.3061 7.9342 30.403 6.87207 31.7119 6.13482C33.0209 5.39757 34.4978 5.0101 36.0001 5.00977ZM36.0301 44.9998L35.6491 45.0208C34.9199 45.1075 34.2479 45.4586 33.7603 46.0077C33.2727 46.5567 33.0034 47.2655 33.0034 47.9998C33.0034 48.7341 33.2727 49.4428 33.7603 49.9919C34.2479 50.5409 34.9199 50.892 35.6491 50.9788L36.0001 50.9998L36.3811 50.9788C37.1102 50.892 37.7822 50.5409 38.2698 49.9919C38.7574 49.4428 39.0267 48.7341 39.0267 47.9998C39.0267 47.2655 38.7574 46.5567 38.2698 46.0077C37.7822 45.4586 37.1102 45.1075 36.3811 45.0208L36.0301 44.9998ZM36.0001 23.9998C35.2653 23.9999 34.5561 24.2696 34.007 24.7579C33.4578 25.2462 33.107 25.919 33.0211 26.6488L33.0001 26.9998V38.9998L33.0211 39.3508C33.1078 40.0799 33.4589 40.7519 34.008 41.2395C34.557 41.7271 35.2658 41.9964 36.0001 41.9964C36.7344 41.9964 37.4431 41.7271 37.9922 41.2395C38.5412 40.7519 38.8923 40.0799 38.9791 39.3508L39.0001 38.9998V26.9998L38.9791 26.6488C38.8931 25.919 38.5423 25.2462 37.9932 24.7579C37.4441 24.2696 36.7349 23.9999 36.0001 23.9998Z" fill="#2A0EEE"/>
</g>
<defs>
<clipPath id="clip0_141_2110">
<rect width="72" height="72" fill="white"/>
</clipPath>
</defs>
</svg>
