<svg width="51" height="52" viewBox="0 0 51 52" fill="none" xmlns="http://www.w3.org/2000/svg">
<g clip-path="url(#clip0_103_4998)">
<path d="M40.375 23.4771V19.2271C40.375 18.0999 39.9272 17.0189 39.1302 16.2218C38.3332 15.4248 37.2522 14.9771 36.125 14.9771H19.125C17.9978 14.9771 16.9168 15.4248 16.1198 16.2218C15.3228 17.0189 14.875 18.0999 14.875 19.2271V36.2271C14.875 37.3542 15.3228 38.4352 16.1198 39.2323C16.9168 40.0293 17.9978 40.4771 19.125 40.4771H23.375" stroke="#AEAEB2" stroke-width="1.42" stroke-linecap="round" stroke-linejoin="round"/>
<path d="M27.625 27.7271L46.75 34.1021L38.25 38.3521L34 46.8521L27.625 27.7271Z" stroke="#AEAEB2" stroke-width="1.42" stroke-linecap="round" stroke-linejoin="round"/>
<path d="M6.375 6.47705V6.49709" stroke="#AEAEB2" stroke-width="1.42" stroke-linecap="round" stroke-linejoin="round"/>
<path d="M14.875 6.47705V6.49709" stroke="#AEAEB2" stroke-width="1.42" stroke-linecap="round" stroke-linejoin="round"/>
<path d="M23.375 6.47705V6.49709" stroke="#AEAEB2" stroke-width="1.42" stroke-linecap="round" stroke-linejoin="round"/>
<path d="M31.875 6.47705V6.49709" stroke="#AEAEB2" stroke-width="1.42" stroke-linecap="round" stroke-linejoin="round"/>
<path d="M6.375 14.9771V14.9971" stroke="#AEAEB2" stroke-width="1.42" stroke-linecap="round" stroke-linejoin="round"/>
<path d="M6.375 23.4771V23.4971" stroke="#AEAEB2" stroke-width="1.42" stroke-linecap="round" stroke-linejoin="round"/>
<path d="M6.375 31.9771V31.9971" stroke="#AEAEB2" stroke-width="1.42" stroke-linecap="round" stroke-linejoin="round"/>
</g>
<defs>
<clipPath id="clip0_103_4998">
<rect width="51" height="51" fill="white" transform="translate(0 0.102051)"/>
</clipPath>
</defs>
</svg>
