<svg width="17" height="17" viewBox="0 0 17 17" fill="none" xmlns="http://www.w3.org/2000/svg">
<path d="M3.15906 13.944H5.85528L12.9329 6.86645C13.1099 6.68941 13.2503 6.47924 13.3461 6.24793C13.442 6.01662 13.4913 5.7687 13.4913 5.51833C13.4913 5.26797 13.442 5.02005 13.3461 4.78874C13.2503 4.55743 13.1099 4.34726 12.9329 4.17022C12.7558 3.99319 12.5457 3.85275 12.3143 3.75694C12.083 3.66113 11.8351 3.61182 11.5848 3.61182C11.3344 3.61182 11.0865 3.66113 10.8552 3.75694C10.6239 3.85275 10.4137 3.99319 10.2366 4.17022L3.15906 11.2478V13.944Z" stroke="#16775B" stroke-width="1.5" stroke-linecap="round" stroke-linejoin="round"/>
<path d="M9.56262 4.84424L12.2588 7.54046" stroke="#16775B" stroke-width="1.5" stroke-linecap="round" stroke-linejoin="round"/>
</svg>
