<svg width="19" height="20" viewBox="0 0 19 20" fill="none" xmlns="http://www.w3.org/2000/svg">
<g clip-path="url(#clip0_128_2720)">
<path d="M1.58337 10H2.37504" stroke="#383838" stroke-width="1.2" stroke-linecap="round" stroke-linejoin="round"/>
<path d="M4.75 6.8335H3.16667C2.9567 6.8335 2.75534 6.9169 2.60687 7.06537C2.45841 7.21384 2.375 7.4152 2.375 7.62516V12.3752C2.375 12.5851 2.45841 12.7865 2.60687 12.935C2.75534 13.0834 2.9567 13.1668 3.16667 13.1668H4.75" stroke="#383838" stroke-width="1.2" stroke-linecap="round" stroke-linejoin="round"/>
<path d="M4.75 6.04167V13.9583C4.75 14.1683 4.83341 14.3697 4.98187 14.5181C5.13034 14.6666 5.3317 14.75 5.54167 14.75H6.33333C6.5433 14.75 6.74466 14.6666 6.89313 14.5181C7.04159 14.3697 7.125 14.1683 7.125 13.9583V6.04167C7.125 5.8317 7.04159 5.63034 6.89313 5.48187C6.74466 5.33341 6.5433 5.25 6.33333 5.25H5.54167C5.3317 5.25 5.13034 5.33341 4.98187 5.48187C4.83341 5.63034 4.75 5.8317 4.75 6.04167Z" stroke="#383838" stroke-width="1.2" stroke-linecap="round" stroke-linejoin="round"/>
<path d="M7.125 10H11.875" stroke="#383838" stroke-width="1.2" stroke-linecap="round" stroke-linejoin="round"/>
<path d="M11.875 6.04167V13.9583C11.875 14.1683 11.9584 14.3697 12.1069 14.5181C12.2553 14.6666 12.4567 14.75 12.6667 14.75H13.4583C13.6683 14.75 13.8697 14.6666 14.0181 14.5181C14.1666 14.3697 14.25 14.1683 14.25 13.9583V6.04167C14.25 5.8317 14.1666 5.63034 14.0181 5.48187C13.8697 5.33341 13.6683 5.25 13.4583 5.25H12.6667C12.4567 5.25 12.2553 5.33341 12.1069 5.48187C11.9584 5.63034 11.875 5.8317 11.875 6.04167Z" stroke="#383838" stroke-width="1.2" stroke-linecap="round" stroke-linejoin="round"/>
<path d="M14.25 6.8335H15.8333C16.0433 6.8335 16.2447 6.9169 16.3931 7.06537C16.5416 7.21384 16.625 7.4152 16.625 7.62516V12.3752C16.625 12.5851 16.5416 12.7865 16.3931 12.935C16.2447 13.0834 16.0433 13.1668 15.8333 13.1668H14.25" stroke="#383838" stroke-width="1.2" stroke-linecap="round" stroke-linejoin="round"/>
<path d="M17.4167 10H16.625" stroke="#383838" stroke-width="1.2" stroke-linecap="round" stroke-linejoin="round"/>
</g>
<defs>
<clipPath id="clip0_128_2720">
<rect width="19" height="19" fill="white" transform="translate(0 0.5)"/>
</clipPath>
</defs>
</svg>
