<svg width="25" height="24" viewBox="0 0 25 24" fill="none" xmlns="http://www.w3.org/2000/svg">
<path d="M16.5767 10.9814H9.09986C8.27399 10.9814 7.60449 11.6509 7.60449 12.4768V16.9629C7.60449 17.7888 8.27399 18.4583 9.09986 18.4583H16.5767C17.4026 18.4583 18.0721 17.7888 18.0721 16.9629V12.4768C18.0721 11.6509 17.4026 10.9814 16.5767 10.9814Z" stroke="#D1D1D6" stroke-linecap="round" stroke-linejoin="round"/>
<path d="M12.8383 15.4676C13.2512 15.4676 13.5859 15.1328 13.5859 14.7199C13.5859 14.307 13.2512 13.9722 12.8383 13.9722C12.4253 13.9722 12.0906 14.307 12.0906 14.7199C12.0906 15.1328 12.4253 15.4676 12.8383 15.4676Z" stroke="#D1D1D6" stroke-linecap="round" stroke-linejoin="round"/>
<path d="M9.84753 10.9815V7.99074C9.84753 7.19755 10.1626 6.43684 10.7235 5.87597C11.2844 5.31509 12.0451 5 12.8383 5C13.6315 5 14.3922 5.31509 14.953 5.87597C15.5139 6.43684 15.829 7.19755 15.829 7.99074V10.9815" stroke="#D1D1D6" stroke-linecap="round" stroke-linejoin="round"/>
</svg>
