<svg width="25" height="24" viewBox="0 0 25 24" fill="none" xmlns="http://www.w3.org/2000/svg">
<g clip-path="url(#clip0_360_238)">
<path d="M11.0488 11.6666C11.0488 12.0792 11.2127 12.4749 11.5044 12.7666C11.7962 13.0583 12.1918 13.2222 12.6044 13.2222C13.0169 13.2222 13.4126 13.0583 13.7043 12.7666C13.9961 12.4749 14.1599 12.0792 14.1599 11.6666C14.1599 11.2541 13.9961 10.8584 13.7043 10.5667C13.4126 10.275 13.0169 10.1111 12.6044 10.1111C12.1918 10.1111 11.7962 10.275 11.5044 10.5667C11.2127 10.8584 11.0488 11.2541 11.0488 11.6666Z" stroke="#D1D1D6" stroke-linecap="round" stroke-linejoin="round"/>
<path d="M19.6045 11.6667C17.7378 14.7778 15.4045 16.3333 12.6045 16.3333C9.80449 16.3333 7.47116 14.7778 5.60449 11.6667C7.47116 8.55556 9.80449 7 12.6045 7C15.4045 7 17.7378 8.55556 19.6045 11.6667Z" stroke="#D1D1D6" stroke-linecap="round" stroke-linejoin="round"/>
</g>
<defs>
<clipPath id="clip0_360_238">
<rect width="24" height="24" fill="white" transform="translate(0.604492)"/>
</clipPath>
</defs>
</svg>
