<svg width="25" height="24" viewBox="0 0 31 31" fill="none" xmlns="http://www.w3.org/2000/svg">
<path d="M10.3333 9.04167C10.3333 10.412 10.8777 11.7261 11.8466 12.6951C12.8155 13.664 14.1297 14.2083 15.5 14.2083C16.8703 14.2083 18.1844 13.664 19.1534 12.6951C20.1223 11.7261 20.6667 10.412 20.6667 9.04167C20.6667 7.67138 20.1223 6.35722 19.1534 5.38828C18.1844 4.41934 16.8703 3.875 15.5 3.875C14.1297 3.875 12.8155 4.41934 11.8466 5.38828C10.8777 6.35722 10.3333 7.67138 10.3333 9.04167Z" stroke="#D1D1D6" stroke-width="1.6"  stroke-linecap="round" stroke-linejoin="round"/>
<path d="M7.75 25.959V23.3757C7.75 22.0054 8.29434 20.6912 9.26328 19.7223C10.2322 18.7533 11.5464 18.209 12.9167 18.209H18.0833C19.4536 18.209 20.7678 18.7533 21.7367 19.7223C22.7057 20.6912 23.25 22.0054 23.25 23.3757V25.959" stroke="#D1D1D6" stroke-width="1.6" stroke-linecap="round" stroke-linejoin="round"/>
</svg>
