<svg width="240" height="193" viewBox="0 0 240 193" fill="none" xmlns="http://www.w3.org/2000/svg">
<g clip-path="url(#clip0_408_2088)">
<path d="M260 0H-20V193H260V0Z" fill="white"/>
<path d="M201.263 62.063C193.064 53.3693 203.37 28.8911 178.641 17.343C153.912 5.79484 116.568 23.4978 103.035 30.192C89.5014 36.8862 83.1893 35.1984 75.3359 32.5205C67.4824 29.8426 42.318 25.1923 28.1159 56.5876C17.9783 78.9978 25.9628 98.2341 16.3627 113.988C3.40237 135.249 18.9494 150.284 18.9494 150.284L211.877 150.482L216.871 151.096L223.172 150.324C226.1 147.763 229.188 150.843 230.946 146.097C237.044 129.63 235.992 97.5413 230.434 88.7626C218.319 69.6306 211.866 73.3062 201.263 62.063Z" fill="#D5E9FD"/>
<path d="M218.912 150.086L217.34 150.066L3.67985 147.344C0.0257587 151.83 5.94668 156.255 10.7404 158.368C22.9079 163.735 29.3924 162.704 40.0445 165.858C48.2804 168.297 37.925 175.164 62.7706 178.403C87.6161 181.643 125.133 176.676 138.73 174.798C152.327 172.92 158.706 174.141 166.596 174.895C174.486 175.648 199.729 176.204 213.994 167.396C220.791 163.2 222.358 161.284 225.517 159.159C225.991 158.84 226.501 158.517 227.071 158.18C228.39 157.399 230.026 156.547 232.268 155.52C236.519 153.574 237.717 151.813 237.404 150.324L218.912 150.086Z" fill="#7EC3A5"/>
<path d="M183.973 145.441C183.973 145.441 183.051 135.934 175.406 138.838C175.406 138.838 170.396 131.973 164.465 140.159C164.465 140.159 160.642 129.464 150.229 133.426C139.816 137.387 143.774 147.818 143.774 147.818C143.774 147.818 141.366 147.404 140.478 149.562C140.257 150.096 140.187 150.681 140.277 151.252H187.021C187.278 150.432 187.357 149.566 187.251 148.713C187.05 147.111 186.198 145.738 183.973 145.441Z" fill="#468E6B"/>
<path d="M234.139 145.441C234.139 145.441 233.217 135.934 225.572 138.838C225.572 138.838 220.562 131.973 214.631 140.159C214.631 140.159 210.808 129.464 200.395 133.426C189.982 137.387 193.94 147.818 193.94 147.818C193.94 147.818 191.532 147.404 190.643 149.562C190.422 150.096 190.353 150.681 190.443 151.252H237.187C237.444 150.432 237.522 149.566 237.417 148.713C237.212 147.111 236.36 145.738 234.139 145.441Z" fill="#468E6B"/>
<path d="M137.811 147.519C137.811 147.519 142.11 136.181 130.79 131.875C119.47 127.569 115.316 139.195 115.316 139.195C108.869 130.296 103.424 137.76 103.424 137.76C95.1141 134.602 94.1112 144.935 94.1112 144.935C91.6941 145.259 90.7673 146.751 90.5525 148.492C90.438 149.42 90.5234 150.361 90.803 151.252H141.612C141.709 150.633 141.633 149.998 141.394 149.419C140.427 147.066 137.811 147.519 137.811 147.519Z" fill="#468E6B"/>
<path d="M194.775 148.79C194.775 148.79 195.407 137.381 186.804 136.626C176.938 135.759 176.818 146.969 176.818 146.969C176.818 146.969 172.334 142.704 169.099 148.111C169.099 148.111 163.511 144.875 160.689 150.853C160.637 150.962 160.606 151.081 160.599 151.203H198.799C198.777 150.812 198.616 150.443 198.345 150.161C197.704 149.478 196.612 148.919 194.775 148.79Z" fill="#5AA382"/>
<path d="M151.829 148.402C151.829 148.402 155.11 139.746 146.469 136.459C137.827 133.171 134.656 142.048 134.656 142.048C129.733 135.254 125.577 140.953 125.577 140.953C119.232 138.54 118.466 146.431 118.466 146.431C116.62 146.677 115.913 147.818 115.75 149.147C115.663 149.854 115.728 150.573 115.942 151.253H154.732C154.806 150.779 154.749 150.294 154.566 149.851C153.825 148.059 151.829 148.402 151.829 148.402Z" fill="#5AA382"/>
<path d="M209.043 149.365C209.043 149.365 211.217 143.632 205.493 141.452C199.77 139.272 197.669 145.152 197.669 145.152C194.408 140.653 191.655 144.427 191.655 144.427C180.474 143.886 179.783 150.81 179.92 151.249H210.964C211.014 150.935 210.976 150.614 210.854 150.32C210.366 149.137 209.043 149.365 209.043 149.365Z" fill="#69AF8D"/>
<path d="M45.1176 144.699C41.8826 139.295 37.3981 143.557 37.3981 143.557C37.3981 143.557 37.2786 132.349 27.4117 133.215C18.8087 133.971 19.4407 145.374 19.4407 145.374C17.6036 145.504 16.5121 146.061 15.8762 146.744C15.6054 147.026 15.4442 147.395 15.4215 147.786L52.0742 147.979C52.0674 147.863 52.3757 147.259 52.3208 147.143C49.4962 141.171 45.1176 144.699 45.1176 144.699Z" fill="#5AA382"/>
<path d="M22.561 141.019C22.561 141.019 19.8077 137.245 16.5476 141.745C16.5476 141.745 14.4465 135.866 8.72308 138.044C2.99965 140.222 5.17303 145.957 5.17303 145.957C5.17303 145.957 3.85031 145.729 3.36188 146.915C3.24017 147.209 3.20215 147.531 3.25206 147.845H34.2959C34.4308 147.403 33.742 140.479 22.561 141.019Z" fill="#468E6B"/>
<path d="M55.8804 148.088C55.8804 148.088 58.2609 145.506 56.4392 145.506C54.6175 145.506 53.4922 147.419 53.3641 147.548C53.236 147.676 54.7282 144.856 52.629 144.331C50.0376 143.683 47.947 149.285 47.947 149.285H58.9074C58.9074 149.285 60.3178 149.206 60.0634 148.148C59.7619 146.873 55.8804 148.088 55.8804 148.088Z" fill="#468E6B"/>
<path d="M69.2638 66.7162C67.1039 63.1061 64.1097 65.9539 64.1097 65.9539C64.1097 65.9539 64.0297 58.4703 57.4422 59.0483C51.6975 59.553 52.1205 67.1707 52.1205 67.1707C50.8941 67.2566 50.1648 67.6281 49.7371 68.0846C49.5565 68.273 49.4489 68.5197 49.4336 68.7803H74.9381C74.9338 68.699 74.9135 68.6193 74.8783 68.5458C72.9959 64.5585 69.2638 66.7162 69.2638 66.7162Z" fill="white"/>
<path d="M100.851 48.9197C100.851 48.9197 101.265 41.4439 95.6284 40.9488C89.1632 40.3814 89.0851 47.725 89.0851 47.725C89.0851 47.725 86.1459 44.9314 84.0265 48.4739C84.0265 48.4739 80.3656 46.3509 78.5169 50.2697C78.4826 50.3417 78.4626 50.4198 78.4581 50.4994H103.488C103.472 50.2433 103.367 50.0011 103.189 49.8162C102.77 49.3684 102.054 49.0037 100.851 48.9197Z" fill="white"/>
<path d="M114.169 63.6476C114.169 63.6476 113.339 61.0845 110.827 61.5323C108.314 61.98 109.2 65.7107 109.2 65.7107C109.2 65.7107 108.387 65.539 107.825 65.924C107.706 66.0061 107.616 66.125 107.571 66.2626C107.525 66.4003 107.526 66.549 107.573 66.6862C107.62 66.8234 107.71 66.9414 107.83 67.0223C107.95 67.1032 108.094 67.1424 108.238 67.1341C110.145 67.0251 114.613 66.834 118.498 67.1621C118.878 67.1948 119.261 67.1473 119.621 67.0226C119.982 66.898 120.312 66.6989 120.591 66.4383C120.87 66.1777 121.091 65.8614 121.24 65.5099C121.389 65.1583 121.463 64.7793 121.457 64.3974C121.441 63.7363 121.205 62.9672 120.59 62.0958C118.228 58.7405 114.129 61.9443 114.169 63.6476Z" fill="white"/>
<path d="M39.4028 110.087C39.4028 110.087 60.1646 126.336 87.3415 122.157C114.518 117.979 125.61 111.349 125.61 111.349C125.61 111.349 132.057 118.82 140.904 115.655C140.904 115.655 131.551 131.481 110.441 135.787C89.3318 140.093 48.1243 131.116 48.1243 131.116C48.1243 131.116 34.5272 121.069 31.3134 113.38C31.3134 113.38 34.2199 115.659 39.4028 110.087Z" fill="#1971BA"/>
<path d="M96.4724 137.055C75.1712 137.055 48.4326 131.297 48.1003 131.225L48.0598 131.206C47.923 131.11 34.3991 121.05 31.2122 113.421L31.0571 113.047L31.377 113.296C31.4049 113.317 34.2777 115.437 39.3229 110.015L39.3894 109.943L39.4665 110.003C39.5185 110.044 44.7487 114.1 53.2264 117.593C61.0471 120.816 73.3119 124.206 87.3232 122.051C114.161 117.925 125.442 111.328 125.553 111.262L125.63 111.216L125.689 111.284C125.752 111.358 132.191 118.661 140.867 115.558L141.145 115.461L140.994 115.716C140.971 115.756 138.586 119.738 133.659 124.193C127.108 130.098 119.098 134.14 110.461 135.898C106.412 136.721 101.599 137.055 96.4724 137.055ZM48.1677 131.021C49.3237 131.271 89.7683 139.899 110.418 135.686C119.015 133.936 126.988 129.913 133.509 124.036C137.708 120.247 140.047 116.799 140.652 115.858C139.326 116.307 137.937 116.537 136.537 116.54C130.432 116.54 126.133 112.089 125.587 111.489C124.555 112.074 113.092 118.306 87.356 122.263C84.391 122.716 81.3958 122.942 78.3966 122.938C68.1135 122.938 59.2658 120.309 53.1368 117.783C45.1947 114.51 40.0927 110.739 39.4106 110.226C35.1303 114.791 32.4059 114.066 31.5388 113.636C34.8731 121.048 47.607 130.602 48.1696 131.021H48.1677Z" fill="#1D1D1B"/>
<path d="M29.8133 99.0627L29.6538 99.204L39.3236 110.156L39.4831 110.015L29.8133 99.0627Z" fill="#1D1D1B"/>
<path d="M29.8425 102.536L29.6318 102.566L31.2124 113.392L31.423 113.362L29.8425 102.536Z" fill="#1D1D1B"/>
<path d="M29.8182 99.9929L29.6458 100.118L37.9003 111.536L38.0728 111.411L29.8182 99.9929Z" fill="#1D1D1B"/>
<path d="M29.8025 100.803L29.6178 100.909L36.3687 112.693L36.5534 112.587L29.8025 100.803Z" fill="#1D1D1B"/>
<path d="M29.8368 102.222L29.6365 102.294L33.7645 113.792L33.9648 113.72L29.8368 102.222Z" fill="#1D1D1B"/>
<path d="M141.522 106.949L139.913 115.722L140.121 115.761L141.73 106.988L141.522 106.949Z" fill="#1D1D1B"/>
<path d="M142.49 100.752L125.554 111.263L125.666 111.444L142.602 100.933L142.49 100.752Z" fill="#1D1D1B"/>
<path d="M142.477 101.485L128.869 114.016L129.013 114.173L142.621 101.642L142.477 101.485Z" fill="#1D1D1B"/>
<path d="M142.466 102.549L132.29 115.681L132.458 115.812L142.635 102.68L142.466 102.549Z" fill="#1D1D1B"/>
<path d="M142.459 104.311L135.474 116.357L135.658 116.464L142.643 104.418L142.459 104.311Z" fill="#1D1D1B"/>
<path d="M92.7325 110.517C88.5842 110.456 71.9418 125.417 71.7232 125.601C71.5045 125.784 69.7444 129.878 69.7444 129.878C69.7444 129.878 72.0979 134.644 78.7154 133.91C85.3328 133.177 93.4387 121.836 93.4387 121.836L103.733 132.715C103.733 132.715 109.669 132.666 111.151 129.787C111.149 129.787 96.8808 110.577 92.7325 110.517Z" fill="#0C2E60"/>
<path d="M106.988 130.828C106.226 131.417 104.13 132.426 103.754 132.605L93.5033 121.774C93.4865 121.759 93.4647 121.751 93.4423 121.752C93.4199 121.752 93.3984 121.761 93.3822 121.777C93.366 121.792 93.3562 121.813 93.3547 121.836C93.3532 121.858 93.3602 121.88 93.3742 121.898L103.668 132.776L103.712 132.824L103.771 132.796C103.867 132.748 106.248 131.627 107.098 130.97C107.107 130.963 107.115 130.954 107.12 130.943C107.126 130.933 107.13 130.922 107.131 130.91C107.133 130.899 107.132 130.887 107.129 130.875C107.126 130.864 107.12 130.854 107.113 130.844C107.098 130.826 107.077 130.813 107.054 130.81C107.03 130.807 107.007 130.814 106.988 130.828Z" fill="#21111D"/>
<path d="M57.0144 132.798C54.8949 134.386 50.0906 135.114 48.1841 135.349C47.3845 134.851 46.6138 134.334 45.872 133.798L45.7881 133.74C44.6851 131.268 43.5464 127.841 42.609 124.739C41.3653 120.63 40.4722 117.091 40.4722 117.091C39.1534 116.637 39.3817 115.952 39.3817 115.952C41.5387 115.412 43.8508 115.185 45.8575 115.111C47.6689 115.036 49.4831 115.072 51.29 115.221C51.29 115.221 57.1521 126.075 57.5279 130.825C57.5972 131.768 57.4556 132.467 57.0144 132.798Z" fill="#8BAEE8"/>
<path d="M72.0276 126.891L116.195 129.824C116.195 129.824 102.92 140.359 101.878 140.548C100.835 140.738 75.9967 142.163 75.9967 142.163L69.7444 133.009L72.0276 126.891Z" fill="#133671"/>
<path d="M62.8505 120.149C62.31 120.06 61.3177 113.016 58.5239 112.746C55.7301 112.476 47.9576 112.019 47.2688 114.452C46.7033 116.451 46.6069 122.477 49.8911 129.294C50.8757 131.338 52.7909 133.71 54.13 134.042C54.7908 134.206 55.3429 134.091 57.6945 134.152C64.1077 134.32 74.2867 134.105 74.2867 134.105C74.2867 134.105 76.6268 126.319 75.0035 120.722C75.0035 120.722 63.3909 120.239 62.8505 120.149Z" fill="#F95D7B"/>
<path d="M52.0318 116.09C52.0187 116.073 52.0007 116.062 51.9805 116.057C51.9604 116.052 51.9391 116.053 51.9199 116.061C51.9007 116.069 51.8846 116.083 51.8741 116.101C51.8635 116.119 51.859 116.14 51.8613 116.161C53.4605 119.976 56.4778 125.917 56.5077 125.977C56.5149 125.99 56.5251 126.001 56.5375 126.01C56.5499 126.019 56.5641 126.024 56.579 126.026C56.5971 126.029 56.6156 126.026 56.6319 126.017C56.6531 126.006 56.669 125.986 56.6765 125.963C56.684 125.94 56.6825 125.915 56.6724 125.893C56.6416 125.836 53.6272 119.895 52.0318 116.09Z" fill="#21111D"/>
<path d="M56.5654 125.794L54.0423 125.831C54.0227 125.836 54.0052 125.848 53.9923 125.864C53.9795 125.88 53.972 125.899 53.971 125.919C53.9699 125.94 53.9753 125.96 53.9864 125.977C53.9975 125.994 54.0137 126.007 54.0327 126.015H54.0452L56.5683 125.977C56.5928 125.975 56.6159 125.965 56.6327 125.947C56.6496 125.929 56.6589 125.905 56.6589 125.88C56.6565 125.857 56.6457 125.835 56.6285 125.819C56.6113 125.803 56.5889 125.794 56.5654 125.794Z" fill="#21111D"/>
<path d="M82.5467 114.726L73.9284 114.243C73.6316 114.227 73.3985 114.397 73.3667 114.655L71.7771 127.38C71.7328 127.735 72.0806 128.095 72.49 128.118L81.1084 128.601C81.4051 128.617 81.6383 128.446 81.6701 128.19L83.2596 115.467C83.304 115.109 82.9552 114.749 82.5467 114.726Z" fill="#FDEACF"/>
<path d="M73.4361 122.169L73.4187 122.175C73.6719 122.4 73.6207 122.32 73.4361 122.169Z" fill="#FE9F73"/>
<path d="M77.4987 124.581C77.4603 124.461 77.3835 124.356 77.2802 124.284C77.1768 124.211 77.0526 124.174 76.9264 124.179L74.7174 124.348C74.6925 124.35 74.6677 124.343 74.6472 124.329C74.6267 124.315 74.6117 124.294 74.6047 124.27L74.5951 124.234C74.5876 124.206 74.5914 124.177 74.6054 124.152C74.6195 124.127 74.6427 124.109 74.6702 124.101L77.0334 123.44C77.1461 123.408 77.2426 123.335 77.3037 123.235C77.3648 123.135 77.3859 123.015 77.3628 122.9C77.3486 122.843 77.323 122.788 77.2874 122.741C77.2519 122.693 77.2071 122.653 77.1558 122.623C77.1045 122.593 77.0477 122.573 76.9888 122.566C76.9299 122.558 76.87 122.562 76.8128 122.578L74.4313 123.245C74.4176 123.249 74.4033 123.25 74.3893 123.248C74.3752 123.246 74.3616 123.242 74.3492 123.235C74.3369 123.228 74.326 123.219 74.3173 123.207C74.3086 123.196 74.3021 123.183 74.2983 123.17L74.2675 123.059C74.2605 123.033 74.2628 123.006 74.2742 122.982C74.2855 122.959 74.305 122.94 74.3292 122.929L76.439 122.029C76.547 121.983 76.6335 121.898 76.6812 121.79C76.729 121.683 76.7343 121.561 76.6962 121.45C76.6745 121.395 76.642 121.344 76.6004 121.302C76.5589 121.259 76.5093 121.225 76.4545 121.202C76.3997 121.179 76.3408 121.167 76.2814 121.167C76.222 121.168 76.1632 121.18 76.1085 121.203C76.1085 121.203 74.5671 121.767 73.4361 122.168C73.6201 122.32 73.6712 122.399 73.4188 122.174C72.9149 122.351 72.4939 122.495 72.3302 122.54L73.3061 122.072L73.4188 122.174L73.4361 122.168C73.2434 122.008 72.9024 121.766 72.6153 121.711C71.9564 121.585 70.2358 123.213 70.2358 123.213C70.1577 123.353 70.2425 123.662 70.3706 123.889C70.8803 126.462 70.9805 126.855 71.1818 127.535L73.8513 126.691C74.6235 126.448 75.4335 126.348 76.2415 126.396L76.4438 126.407C76.5031 126.411 76.5626 126.402 76.6185 126.382C76.6745 126.362 76.7259 126.331 76.7697 126.291C76.8134 126.25 76.8486 126.202 76.8733 126.147C76.8979 126.093 76.9114 126.034 76.9129 125.975C76.9107 125.858 76.8645 125.746 76.7834 125.661C76.7024 125.576 76.5924 125.526 76.4756 125.519L75.0103 125.436C74.9817 125.436 74.9542 125.424 74.934 125.404C74.9137 125.384 74.9024 125.356 74.9024 125.327C74.9024 125.299 74.9137 125.271 74.934 125.251C74.9542 125.231 74.9817 125.219 75.0103 125.219L77.1759 125.054C77.2317 125.053 77.2864 125.038 77.3355 125.012C77.3847 124.985 77.427 124.948 77.459 124.902C77.491 124.856 77.5119 124.804 77.52 124.748C77.528 124.693 77.523 124.636 77.5054 124.583L77.4987 124.581Z" fill="#FE9F73"/>
<path d="M77.9658 118.309C77.7428 118.325 77.5343 118.426 77.383 118.591C77.2317 118.756 77.149 118.973 77.1518 119.197C77.1495 119.305 77.1693 119.413 77.21 119.513C77.2507 119.613 77.3114 119.704 77.3884 119.78C77.4655 119.856 77.5572 119.916 77.658 119.955C77.7588 119.994 77.8665 120.012 77.9745 120.008C78.1976 119.992 78.4061 119.891 78.5574 119.726C78.7087 119.561 78.7914 119.345 78.7886 119.121C78.7909 119.012 78.7711 118.905 78.7304 118.804C78.6897 118.704 78.629 118.613 78.5519 118.537C78.4749 118.461 78.3832 118.402 78.2824 118.362C78.1816 118.323 78.0739 118.305 77.9658 118.309Z" fill="white"/>
<path d="M72.6432 121.53L72.5315 122.478L73.5334 122.131L73.5132 121.446L72.6432 121.53Z" fill="#FDEACF"/>
<path d="M82.5458 114.633L73.9274 114.151C73.5883 114.131 73.3147 114.336 73.2771 114.633L72.3137 122.546L72.5266 122.469L73.4505 114.664C73.4775 114.452 73.6721 114.314 73.9235 114.328L82.5419 114.811C82.5537 114.812 82.5655 114.81 82.5765 114.806C82.5876 114.801 82.5976 114.795 82.6061 114.787C82.6145 114.779 82.6211 114.769 82.6255 114.758C82.6299 114.747 82.6319 114.735 82.6315 114.723C82.63 114.7 82.6206 114.679 82.605 114.663C82.5893 114.646 82.5683 114.636 82.5458 114.633Z" fill="#21111D"/>
<path d="M72.3177 129.05C72.1818 129.104 58.7254 134.468 54.8584 134.08C51.0366 133.694 48.6677 126.167 48.6446 126.09C48.6362 126.063 48.6173 126.04 48.5921 126.026C48.5669 126.013 48.5374 126.01 48.5102 126.019C48.483 126.027 48.4602 126.046 48.447 126.071C48.4337 126.097 48.431 126.126 48.4394 126.153C48.5357 126.469 50.8748 133.896 54.8372 134.293C56.1117 134.422 58.3554 133.956 60.8226 133.263C65.942 131.823 72.0229 129.403 72.3976 129.249C72.4238 129.238 72.4446 129.218 72.4558 129.192C72.467 129.166 72.4675 129.137 72.4574 129.11C72.4523 129.097 72.4446 129.085 72.4348 129.075C72.4249 129.064 72.4131 129.056 72.4001 129.051C72.3871 129.045 72.3731 129.042 72.3589 129.042C72.3448 129.042 72.3307 129.045 72.3177 129.05Z" fill="#21111D"/>
<path d="M71.6172 125.151L71.1355 123.719L70.5969 122.657L68.7078 123.56L70.2106 127.671L72.4621 129.11C72.4283 128.821 71.9804 126.814 71.9804 126.814L71.6172 125.151Z" fill="#F95D7B"/>
<path d="M70.5287 122.477L70.4738 122.486C66.2995 123.135 53.6262 126.643 53.4981 126.678C53.4754 126.686 53.4563 126.702 53.4446 126.723C53.4328 126.743 53.4292 126.768 53.4345 126.791C53.4392 126.809 53.4491 126.825 53.4628 126.836C53.4766 126.848 53.4936 126.856 53.5116 126.858C53.5233 126.86 53.5355 126.86 53.5472 126.858C53.6744 126.822 66.2262 123.348 70.4458 122.679C70.6144 122.926 71.4237 124.217 71.9198 126.82C71.9294 126.839 71.9447 126.853 71.9633 126.862C71.9819 126.871 72.0029 126.874 72.0232 126.87C72.0435 126.866 72.0621 126.856 72.076 126.841C72.09 126.825 72.0988 126.806 72.1009 126.786C71.5383 123.836 70.6009 122.574 70.5595 122.522L70.5287 122.477Z" fill="#21111D"/>
<path d="M59.8053 113.285C59.3429 112.793 58.4816 112.543 57.2437 112.543H57.13C57.1075 112.544 57.086 112.552 57.0697 112.568C57.0534 112.583 57.0435 112.605 57.0421 112.627C57.0406 112.65 57.0476 112.672 57.0618 112.689C57.076 112.707 57.0962 112.718 57.1184 112.722H57.2446C58.4306 112.722 59.2485 112.952 59.6743 113.408C60.7639 114.566 62.5981 119.705 62.7571 120.149L62.4951 120.867C62.487 120.89 62.488 120.914 62.4979 120.936C62.5078 120.957 62.5259 120.974 62.548 120.982C62.5582 120.984 62.5687 120.984 62.5789 120.982C62.597 120.982 62.6147 120.976 62.6297 120.966C62.6446 120.956 62.6561 120.941 62.6627 120.924L62.9517 120.145L62.9411 120.116C62.8554 119.892 60.9642 114.522 59.8053 113.285Z" fill="#21111D"/>
<path d="M71.5738 120.495L62.8553 120.06C62.843 120.059 62.8304 120.06 62.8184 120.063C62.8065 120.066 62.7953 120.072 62.7857 120.08C62.7761 120.088 62.7682 120.098 62.7626 120.109C62.757 120.12 62.7537 120.132 62.7531 120.144C62.7524 120.157 62.7543 120.169 62.7587 120.181C62.7631 120.193 62.7699 120.203 62.7786 120.212C62.7873 120.221 62.7977 120.228 62.8093 120.233C62.8208 120.237 62.8332 120.239 62.8456 120.239L71.5652 120.674C71.588 120.674 71.61 120.665 71.6265 120.65C71.643 120.634 71.6528 120.612 71.6538 120.589C71.6549 120.566 71.6473 120.544 71.6324 120.526C71.6176 120.509 71.5966 120.497 71.5738 120.495Z" fill="#21111D"/>
<path d="M75.0035 131C74.9802 130.996 74.9562 131.001 74.9368 131.015C74.9173 131.028 74.9039 131.049 74.8995 131.072C74.727 132.07 74.3051 133.672 74.2136 134.015L56.3439 134.051C56.3218 134.053 56.3014 134.064 56.2866 134.08C56.2718 134.097 56.2635 134.118 56.2635 134.14C56.2635 134.162 56.2718 134.184 56.2866 134.2C56.3014 134.217 56.3218 134.227 56.3439 134.23L74.3494 134.195L74.3677 134.128C74.3725 134.11 74.8802 132.228 75.0748 131.103C75.0788 131.08 75.0735 131.056 75.0602 131.037C75.0469 131.017 75.0265 131.004 75.0035 131Z" fill="#21111D"/>
<path d="M94.1256 120.804C94.1156 120.797 94.1045 120.793 94.093 120.791C94.0814 120.79 94.0696 120.79 94.0582 120.793C94.0468 120.796 94.0361 120.801 94.0267 120.808C94.0173 120.815 94.0093 120.823 94.0033 120.833C93.6276 121.459 92.1613 123.361 92.1459 123.379C92.1356 123.392 92.1292 123.408 92.1275 123.425C92.1258 123.442 92.1289 123.459 92.1363 123.474C92.1438 123.489 92.1553 123.502 92.1696 123.51C92.1839 123.519 92.2004 123.524 92.2172 123.524C92.2308 123.524 92.2442 123.521 92.2564 123.515C92.2686 123.509 92.2793 123.5 92.2875 123.489C92.3482 123.411 93.7749 121.559 94.1564 120.926C94.1685 120.906 94.172 120.881 94.1662 120.858C94.1605 120.835 94.1459 120.816 94.1256 120.804Z" fill="#21111D"/>
<path d="M45.87 133.798L45.7862 133.74C45.712 133.687 45.6388 133.633 45.5665 133.58C44.5598 131.403 43.4163 127.88 42.4635 124.649C41.3623 120.931 40.5069 117.605 40.3961 117.162C39.1206 116.754 39.2843 115.968 39.293 115.933L39.3065 115.878L39.3614 115.865C39.3932 115.859 42.5463 115.196 45.7631 115.023C45.775 115.022 45.787 115.024 45.7984 115.028C45.8097 115.032 45.8202 115.038 45.8292 115.046C45.8381 115.054 45.8454 115.064 45.8506 115.074C45.8558 115.085 45.8588 115.097 45.8594 115.109C45.8609 115.121 45.8599 115.133 45.8564 115.144C45.8529 115.156 45.8471 115.167 45.8393 115.176C45.8315 115.185 45.8219 115.192 45.8111 115.197C45.8003 115.202 45.7885 115.205 45.7765 115.206C42.8219 115.364 39.9231 115.936 39.4645 116.031C39.4558 116.199 39.5204 116.706 40.4992 117.009L40.5483 117.024L40.5608 117.073C40.5782 117.143 41.4953 120.765 42.6899 124.793C43.6793 128.11 44.8498 131.706 45.87 133.798Z" fill="#21111D"/>
<path d="M43.7535 116.385C43.7427 116.38 43.7311 116.378 43.7195 116.378C43.7078 116.378 43.6963 116.381 43.6855 116.385C43.6748 116.39 43.665 116.397 43.6569 116.405C43.6487 116.413 43.6423 116.423 43.6379 116.434L43.0811 117.817C43.0767 117.828 43.0746 117.839 43.0747 117.851C43.0749 117.863 43.0774 117.874 43.082 117.885C43.0867 117.896 43.0934 117.906 43.1019 117.914C43.1103 117.922 43.1203 117.928 43.1312 117.933C43.1415 117.937 43.1527 117.94 43.1639 117.939C43.1818 117.94 43.1992 117.934 43.214 117.924C43.2288 117.914 43.2402 117.9 43.2468 117.883L43.8036 116.501C43.808 116.49 43.8102 116.478 43.81 116.466C43.8098 116.455 43.8073 116.443 43.8027 116.432C43.798 116.421 43.7913 116.412 43.7828 116.404C43.7744 116.395 43.7644 116.389 43.7535 116.385Z" fill="#21111D"/>
<path d="M44.2506 117.074C44.2394 117.07 44.2277 117.069 44.216 117.07C44.2044 117.071 44.193 117.074 44.1826 117.079C44.1723 117.085 44.163 117.092 44.1555 117.101C44.148 117.11 44.1423 117.121 44.1388 117.132L43.635 118.71C43.628 118.733 43.6302 118.758 43.6412 118.779C43.6522 118.8 43.6711 118.816 43.6937 118.823C43.7027 118.825 43.7118 118.825 43.7207 118.823C43.7395 118.823 43.7578 118.817 43.773 118.806C43.7883 118.795 43.7996 118.779 43.8055 118.762L44.3084 117.182C44.3147 117.16 44.3122 117.136 44.3014 117.116C44.2906 117.096 44.2724 117.081 44.2506 117.074Z" fill="#21111D"/>
<path d="M54.8998 102.348L55.0616 112.151L57.4643 112.441L57.7485 111.659C57.7485 111.659 57.8159 112.272 57.8217 112.484L58.4392 112.56C58.4392 112.56 59.4286 106.232 58.4643 104.382C57.4999 102.532 54.8998 102.348 54.8998 102.348Z" fill="#21111D"/>
<path d="M53.4093 102.676C53.4093 102.587 52.3332 102.441 52.3332 102.441L52.2041 112.883C52.2023 113.04 52.2517 113.194 52.3449 113.321C52.438 113.448 52.5699 113.541 52.7205 113.586C53.6906 113.876 55.6848 114.337 55.8332 113.297L55.8823 110.884C58.5056 110.209 57.1839 105.335 57.1839 105.335C57.1839 105.335 53.4093 102.767 53.4093 102.676Z" fill="#F39D75"/>
<path d="M55.8535 107.467C55.7639 107.081 56.023 106.719 56.0259 106.716L56.0182 106.669L55.972 106.676C55.9604 106.692 55.6926 107.062 55.7889 107.482C55.8477 107.737 56.0307 107.952 56.3323 108.118C56.2928 108.204 56.1541 108.467 55.9392 108.509C55.9313 108.511 55.9243 108.516 55.9196 108.523C55.9149 108.529 55.9128 108.538 55.9136 108.546C55.9144 108.554 55.9181 108.561 55.9241 108.567C55.93 108.573 55.9378 108.576 55.946 108.576H55.9527C56.2417 108.517 56.3997 108.133 56.4065 108.117L56.418 108.089L56.391 108.075C56.0905 107.915 55.9142 107.71 55.8535 107.467Z" fill="#ED7163"/>
<path d="M55.865 111.93L55.8775 110.887C55.8775 110.887 54.1194 110.762 53.0481 110.067C53.0481 110.067 54.4961 111.497 55.865 111.93Z" fill="#ED7163"/>
<path d="M54.9411 106.931C54.9045 106.93 54.8686 106.94 54.8378 106.96C54.807 106.98 54.7828 107.009 54.7681 107.042C54.7534 107.076 54.7489 107.113 54.7552 107.149C54.7615 107.185 54.7784 107.219 54.8036 107.245C54.8288 107.272 54.8613 107.29 54.8969 107.298C54.9326 107.307 54.9699 107.304 55.0042 107.291C55.0384 107.278 55.0681 107.255 55.0894 107.226C55.1108 107.196 55.1228 107.16 55.1242 107.124C55.125 107.099 55.1208 107.074 55.112 107.051C55.1032 107.028 55.0899 107.007 55.0729 106.989C55.0559 106.971 55.0354 106.957 55.0128 106.947C54.9902 106.937 54.9659 106.931 54.9411 106.931Z" fill="black"/>
<path d="M56.8149 107.019C56.7783 107.018 56.7424 107.028 56.7116 107.048C56.6808 107.068 56.6565 107.096 56.6419 107.13C56.6272 107.164 56.6227 107.201 56.629 107.237C56.6353 107.273 56.6521 107.306 56.6774 107.333C56.7026 107.36 56.735 107.378 56.7707 107.386C56.8064 107.394 56.8437 107.392 56.8779 107.379C56.9122 107.366 56.9418 107.343 56.9632 107.313C56.9845 107.284 56.9966 107.248 56.998 107.212C56.999 107.187 56.995 107.162 56.9863 107.139C56.9776 107.115 56.9643 107.094 56.9473 107.076C56.9302 107.058 56.9097 107.044 56.8869 107.034C56.8642 107.024 56.8397 107.019 56.8149 107.019Z" fill="black"/>
<path d="M55.5645 109.285C56.0308 109.41 56.3352 108.94 56.3352 108.94C56.3352 108.94 55.0828 108.603 55.0607 108.6C55.0645 108.6 55.0982 109.162 55.5645 109.285Z" fill="#FBFDFC"/>
<path d="M52.3295 102.442C50.4991 103.222 50.3787 107.306 50.3787 107.306L52.3709 110.37C52.3709 110.37 51.1763 107.499 53.315 106.64C55.4537 105.781 55.9691 103.524 55.9691 103.524C56.2032 102.241 53.6638 101.875 52.3295 102.442Z" fill="#21111D"/>
<path d="M55.4324 106.211C54.9016 106.018 54.3852 106.313 54.3641 106.326C54.3566 106.33 54.35 106.336 54.3448 106.342C54.3395 106.349 54.3357 106.357 54.3334 106.365C54.3312 106.374 54.3306 106.383 54.3317 106.391C54.3329 106.4 54.3357 106.408 54.34 106.415L54.3689 106.442C54.3784 106.447 54.389 106.45 54.3997 106.45C54.4104 106.45 54.421 106.447 54.4305 106.442C54.4305 106.442 54.9122 106.166 55.3881 106.338C55.3962 106.341 55.4048 106.343 55.4135 106.342C55.4221 106.342 55.4306 106.34 55.4384 106.336C55.4462 106.332 55.4532 106.327 55.459 106.321C55.4647 106.314 55.4691 106.307 55.4719 106.299C55.4755 106.29 55.4772 106.281 55.4771 106.272C55.477 106.263 55.4751 106.254 55.4714 106.246C55.4676 106.238 55.4623 106.23 55.4556 106.224C55.4489 106.218 55.441 106.214 55.4324 106.211Z" fill="#49263E"/>
<path d="M56.2455 106.274C56.2297 106.278 56.2159 106.288 56.2067 106.301C56.1974 106.315 56.1934 106.331 56.1955 106.347C56.1975 106.364 56.2054 106.378 56.2176 106.389C56.2299 106.4 56.2456 106.406 56.2619 106.406C56.7619 106.341 57.1704 106.713 57.1742 106.716L57.2099 106.734C57.2205 106.735 57.2314 106.734 57.2415 106.731C57.2516 106.727 57.2606 106.721 57.2677 106.713C57.2743 106.706 57.2796 106.699 57.2833 106.691C57.2869 106.682 57.2888 106.673 57.2888 106.664C57.2888 106.655 57.2869 106.646 57.2833 106.638C57.2796 106.63 57.2743 106.622 57.2677 106.616C57.2455 106.603 56.8053 106.202 56.2455 106.274Z" fill="#49263E"/>
<path d="M55.5712 104.53L55.8034 104.395L54.9152 103.533L55.5712 104.53Z" fill="#F39D75"/>
<path d="M49.8392 104.946C49.4008 106.815 49.3517 111.604 49.3517 111.604C49.5762 111.681 49.8083 111.749 50.0395 111.809L50.3353 110.788C50.3353 110.788 50.4499 111.49 50.5183 111.923C51.1664 112.062 51.8224 112.162 52.4827 112.221L52.4297 111.668C52.2515 108.737 52.762 106.779 52.762 106.779L52.9316 102.268C52.9316 102.268 50.3786 102.646 49.8392 104.946Z" fill="#21111D"/>
<path d="M52.0519 106.529C51.8464 106.527 51.6447 106.585 51.4724 106.698C51.3001 106.81 51.1649 106.971 51.084 107.16C51.003 107.35 50.9799 107.559 51.0176 107.761C51.0553 107.964 51.152 108.15 51.2957 108.298C51.4393 108.445 51.6233 108.547 51.8244 108.589C52.0255 108.632 52.2348 108.614 52.4256 108.537C52.6165 108.461 52.7805 108.329 52.8967 108.159C53.013 107.989 53.0764 107.789 53.0789 107.583C53.0805 107.446 53.0553 107.311 53.0046 107.184C52.9539 107.057 52.8787 106.941 52.7833 106.843C52.6879 106.745 52.5743 106.667 52.4488 106.613C52.3233 106.559 52.1884 106.531 52.0519 106.529Z" fill="#F39D75"/>
<path d="M52.0896 107.115C51.9307 107.039 51.749 107.024 51.58 107.074C51.5716 107.077 51.5647 107.083 51.5607 107.091C51.5567 107.099 51.556 107.108 51.5588 107.117C51.5601 107.121 51.5622 107.125 51.565 107.128C51.5678 107.131 51.5712 107.134 51.5751 107.136C51.5789 107.138 51.5831 107.139 51.5875 107.14C51.5918 107.14 51.5961 107.139 51.6002 107.138C51.7516 107.093 51.914 107.106 52.0569 107.173C52.1503 107.228 52.2213 107.314 52.2572 107.417C52.179 107.362 52.0864 107.331 51.9907 107.327C51.895 107.324 51.8005 107.349 51.7187 107.399C51.6398 107.448 51.5799 107.522 51.5488 107.61C51.5176 107.698 51.5171 107.793 51.5472 107.881C51.5696 107.974 51.6215 108.056 51.6951 108.117C51.7686 108.177 51.8598 108.211 51.9547 108.215H51.9644C51.9732 108.215 51.9817 108.211 51.9879 108.205C51.9942 108.199 51.9978 108.19 51.9981 108.181C51.9981 108.177 51.9972 108.173 51.9955 108.168C51.9938 108.164 51.9913 108.161 51.9882 108.158C51.985 108.155 51.9813 108.152 51.9772 108.151C51.9731 108.149 51.9688 108.148 51.9644 108.148C51.8822 108.146 51.8032 108.116 51.7399 108.064C51.6765 108.011 51.6324 107.939 51.6147 107.859C51.5905 107.785 51.5914 107.706 51.6172 107.632C51.643 107.559 51.6922 107.497 51.7572 107.455C51.8435 107.405 51.9436 107.386 52.0419 107.4C52.1402 107.414 52.2312 107.46 52.3006 107.531L52.3834 107.616L52.3497 107.501C52.3361 107.422 52.3059 107.347 52.261 107.28C52.2162 107.213 52.1578 107.157 52.0896 107.115Z" fill="#ED7163"/>
<path d="M59.9343 118.309C60.7108 116.12 57.7802 114.449 57.7503 114.436C57.7403 114.43 57.7289 114.425 57.717 114.423C57.7051 114.42 57.6928 114.421 57.681 114.424C57.6692 114.426 57.658 114.431 57.6483 114.439C57.6386 114.446 57.6305 114.455 57.6246 114.466C57.6186 114.477 57.6149 114.488 57.6137 114.5C57.6125 114.512 57.6138 114.525 57.6176 114.536C57.6214 114.548 57.6275 114.558 57.6356 114.568C57.6436 114.577 57.6535 114.584 57.6646 114.589C57.6935 114.605 60.5297 116.219 59.757 118.287L59.7426 118.325L63.0884 124.222C63.0956 124.234 63.1058 124.245 63.118 124.253C63.1303 124.26 63.1443 124.265 63.1587 124.266C63.1759 124.267 63.1929 124.263 63.2078 124.254C63.2179 124.249 63.2268 124.241 63.2339 124.232C63.241 124.223 63.2463 124.213 63.2493 124.201C63.2524 124.19 63.2532 124.179 63.2517 124.167C63.2502 124.156 63.2464 124.145 63.2406 124.135L59.9343 118.309Z" fill="#21111D"/>
<path d="M58.5654 114.115C58.5427 114.12 58.5226 114.133 58.5097 114.152C58.4967 114.171 58.4918 114.195 58.496 114.217L58.7128 115.344C58.7165 115.362 58.7264 115.38 58.7408 115.392C58.7553 115.405 58.7735 115.413 58.7927 115.414C58.8004 115.415 58.8082 115.415 58.8158 115.414C58.8385 115.41 58.8585 115.396 58.8715 115.377C58.8845 115.358 58.8894 115.334 58.8852 115.312L58.6684 114.186C58.664 114.163 58.6507 114.142 58.6314 114.129C58.6121 114.116 58.5883 114.111 58.5654 114.115Z" fill="#21111D"/>
<path d="M140.859 115.748C140.281 116.865 133.978 128.559 118.44 136.546C117.284 137.14 116.079 137.711 114.825 138.257C107.572 141.411 98.5774 143.689 87.5611 143.968C84.8823 144.037 82.3098 144.016 79.8435 143.907C78.6066 143.853 77.3956 143.778 76.2106 143.682C64.4324 142.731 55.209 139.736 48.185 135.349C47.3854 134.851 46.6147 134.334 45.8729 133.798L45.7891 133.74C45.7149 133.687 45.6417 133.633 45.5694 133.58C38.2429 128.215 33.6688 121.172 31.323 113.397C31.4617 113.731 33.9039 119.395 42.4664 124.649C42.5126 124.681 42.5627 124.709 42.6109 124.739C42.6369 124.756 42.662 124.771 42.6899 124.786C45.2217 126.318 48.2775 127.811 51.9518 129.121C53.016 129.501 54.1345 129.865 55.3073 130.212C56.0259 130.425 56.7661 130.63 57.5278 130.828C64.6347 132.672 73.5748 133.826 84.7837 133.638C99.8028 133.385 110.945 131.475 119.158 128.989C120.713 128.518 122.165 128.029 123.513 127.521C136.524 122.657 140.392 116.553 140.859 115.748Z" fill="#6590CE"/>
<path d="M79.7193 143.755L79.8426 143.907C78.6056 143.853 77.3947 143.778 76.2097 143.682L76.5604 143.409L76.4255 141.189L78.2646 142.434L80.331 141.621L79.7193 143.755Z" fill="#8BAEE8"/>
<path d="M56.5886 132.362L54.3728 132.439L53.1802 134.315L52.421 132.225L50.2708 131.667L52.0202 130.298L51.9499 129.121C53.0141 129.501 54.1326 129.865 55.3054 130.212L55.1811 130.647L56.5886 132.362Z" fill="#8BAEE8"/>
<path d="M94.0832 141.555L93.0871 139.568L90.8887 139.263L92.4667 137.7L92.0765 135.511L94.0485 136.532L96.0061 135.483L95.6468 137.678L97.247 139.219L95.0524 139.553L94.0832 141.555Z" fill="#8BAEE8"/>
<path d="M67.2262 140.385L66.23 138.398L64.0306 138.094L65.6096 136.531L65.2195 134.343L67.1915 135.363L69.1491 134.315L68.7888 136.509L70.3889 138.05L68.1944 138.385L67.2262 140.385Z" fill="#8BAEE8"/>
<path d="M118.402 136.509L118.44 136.546C117.284 137.14 116.079 137.711 114.825 138.257L113.645 138.094L115.226 136.531L114.835 134.342L116.806 135.362L118.764 134.315L118.402 136.509Z" fill="#8BAEE8"/>
<path d="M125.059 129.394L122.864 129.73L121.901 131.732L120.905 129.745L118.705 129.439L119.16 128.989C120.715 128.518 122.167 128.029 123.515 127.521L123.46 127.854L125.059 129.394Z" fill="#8BAEE8"/>
<path d="M48.1272 135.44C47.3266 134.942 46.5453 134.418 45.8074 133.884L45.7255 133.828L45.5135 133.674C38.5358 128.565 33.7276 121.752 31.2131 113.415L31.4145 113.345C31.4376 113.403 33.8229 119.222 42.5184 124.557C42.554 124.581 42.5868 124.601 42.6147 124.621L42.66 124.647C42.6838 124.663 42.7085 124.678 42.7342 124.691C46.9355 127.235 51.9181 129.265 57.5471 130.725C65.387 132.759 74.5459 133.701 84.775 133.531C127.549 132.812 138.847 118.615 140.555 116.017C140.703 115.778 140.785 115.642 140.792 115.631L140.977 115.737C140.949 115.786 140.874 115.917 140.744 116.116C139.609 117.942 134.429 125.959 128.685 129.999L128.562 129.824C133.054 126.668 137.202 121.055 139.32 117.916C135.069 122.591 121.454 133.128 84.775 133.742C74.5276 133.914 65.3485 132.97 57.4902 130.929C51.84 129.464 46.8382 127.427 42.6243 124.875C42.5956 124.86 42.5679 124.844 42.5415 124.826L42.502 124.802C42.4654 124.78 42.4297 124.759 42.3951 124.736C35.9462 120.779 32.9405 116.542 31.7979 114.563C34.3884 122.304 39.0358 128.668 45.6243 133.491L45.844 133.652L45.9258 133.708C46.6619 134.24 47.4383 134.76 48.238 135.252L48.1272 135.44Z" fill="#1D1D1B"/>
<path d="M30.3751 77.9276H26.8212V156.252H30.3751V77.9276Z" fill="white"/>
<path d="M143.844 77.9276H140.29V158.718H143.844V77.9276Z" fill="white"/>
<path d="M45.5029 84.4819L46.974 90.7177L50.5587 85.4112L45.5029 84.4819Z" fill="#FEC786"/>
<path d="M36.3047 81.006L36.3924 87.4126L41.0397 83.0103L36.3047 81.006Z" fill="#FEC786"/>
<path d="M55.0972 85.804L57.6549 91.6779L60.2378 85.8165L55.0972 85.804Z" fill="#FEC786"/>
<path d="M64.8524 85.416L68.7445 90.5006L69.8446 84.1895L64.8524 85.416Z" fill="#FEC786"/>
<path d="M74.2704 83.0595L78.8493 87.5332L79.0362 81.1285L74.2704 83.0595Z" fill="#FEC786"/>
<path d="M50.1859 85.4922L52.2398 91.5611L55.3072 85.9381L50.1859 85.4922Z" fill="#6590CE"/>
<path d="M40.8672 83.0132L41.7448 89.36L45.8132 84.4153L40.8672 83.0132Z" fill="#6590CE"/>
<path d="M32.269 78.6716L31.5243 85.0358L36.7034 81.2762L32.269 78.6716Z" fill="#6590CE"/>
<path d="M59.9497 85.8619L63.0161 91.4839L65.071 85.417L59.9497 85.8619Z" fill="#6590CE"/>
<path d="M69.5344 84.2522L73.4255 89.3368L74.5266 83.0247L69.5344 84.2522Z" fill="#6590CE"/>
<path d="M78.7915 81.2318L83.3704 85.7055L83.5573 79.3018L78.7915 81.2318Z" fill="#6590CE"/>
<path d="M84.0033 79.1513L83.5554 79.3713C82.0409 80.1092 80.5316 80.7869 79.0275 81.4045L78.9851 81.4219C77.488 82.0356 75.998 82.5892 74.515 83.0827L74.3503 83.1377C72.8236 83.6414 71.306 84.0808 69.7974 84.4559L69.7068 84.479C69.3857 84.5594 69.0645 84.636 68.7434 84.7087C67.5122 84.9918 66.2865 85.2314 65.0662 85.4276L64.8822 85.4575C63.3504 85.6988 61.8309 85.8715 60.3235 85.9757L60.1617 85.9864L60.022 85.996C58.4125 86.0964 56.8178 86.1189 55.2378 86.0636H55.2089C53.6006 86.0067 51.9963 85.8659 50.4026 85.6418L50.2263 85.6168C48.6639 85.3911 47.1145 85.0825 45.5848 84.6923L45.5501 84.6836C44.4474 84.4012 43.3578 84.0766 42.2814 83.7099C41.8074 83.5484 41.345 83.3821 40.8941 83.211L40.8469 83.1927C39.4104 82.6462 38.0041 82.0232 36.634 81.3264L36.3065 81.1585C34.9143 80.4369 33.5635 79.6379 32.2603 78.7653C31.9848 78.5806 31.7243 78.4018 31.479 78.2287C31.6075 78.1528 31.7359 78.0769 31.8644 78.001C35.1218 80.261 38.6787 82.054 42.4316 83.3278C48.6117 85.4305 57.5422 86.8413 68.7502 84.2677C73.3811 83.2062 78.4003 81.4605 83.7789 78.8048C83.8553 78.9193 83.9301 79.0348 84.0033 79.1513Z" fill="white"/>
<path d="M100.624 84.4819L102.095 90.7177L105.679 85.4112L100.624 84.4819Z" fill="#FEC786"/>
<path d="M91.4253 81.006L91.513 87.4126L96.1603 83.0103L91.4253 81.006Z" fill="#FEC786"/>
<path d="M110.218 85.804L112.775 91.6779L115.358 85.8165L110.218 85.804Z" fill="#FEC786"/>
<path d="M119.973 85.416L123.865 90.5006L124.965 84.1895L119.973 85.416Z" fill="#FEC786"/>
<path d="M129.391 83.0595L133.97 87.5332L134.157 81.1285L129.391 83.0595Z" fill="#FEC786"/>
<path d="M105.307 85.4922L107.359 91.5611L110.428 85.9381L105.307 85.4922Z" fill="#6590CE"/>
<path d="M95.9878 83.0132L96.8654 89.36L100.934 84.4153L95.9878 83.0132Z" fill="#6590CE"/>
<path d="M87.3887 78.6716L86.645 85.0358L91.8241 81.2762L87.3887 78.6716Z" fill="#6590CE"/>
<path d="M115.07 85.8619L118.137 91.4839L120.192 85.417L115.07 85.8619Z" fill="#6590CE"/>
<path d="M124.654 84.2522L128.546 89.3368L129.646 83.0247L124.654 84.2522Z" fill="#6590CE"/>
<path d="M133.912 81.2318L138.491 85.7055L138.678 79.3018L133.912 81.2318Z" fill="#6590CE"/>
<path d="M139.124 79.1512C138.975 79.2246 138.825 79.2989 138.675 79.3713C137.161 80.1092 135.652 80.7869 134.147 81.4045L134.106 81.4219C132.609 82.0356 131.119 82.5892 129.636 83.0827L129.47 83.1377C127.944 83.6414 126.426 84.0808 124.917 84.4559L124.827 84.479C124.505 84.5594 124.184 84.636 123.863 84.7087C122.632 84.9917 121.407 85.2314 120.189 85.4276L120.005 85.4575C118.473 85.6988 116.953 85.8715 115.446 85.9757L115.284 85.9863L115.145 85.996C113.534 86.0964 111.94 86.1189 110.36 86.0635H110.332C108.723 86.0067 107.119 85.8659 105.525 85.6418L105.349 85.6167C103.787 85.3911 102.237 85.0825 100.707 84.6923L100.672 84.6836C99.5696 84.4012 98.4804 84.0766 97.404 83.7099C96.93 83.5484 96.4676 83.3821 96.0167 83.211L95.9695 83.1927C94.5314 82.646 93.1235 82.0227 91.7518 81.3254L91.4233 81.1575C90.0313 80.4357 88.6804 79.6367 87.3771 78.7643C87.1029 78.5796 86.8428 78.4008 86.5968 78.2277L86.9822 78C90.2401 80.2598 93.7972 82.0528 97.5504 83.3268C103.73 85.4295 112.661 86.8404 123.869 84.2667C128.5 83.2052 133.519 81.4595 138.898 78.8038C138.975 78.919 139.051 79.0348 139.124 79.1512Z" fill="white"/>
<path d="M144.942 77.9276H25.6593V79.7003H144.942V77.9276Z" fill="#8BAEE8"/>
<path d="M33.6765 154.078C32.1524 153.584 33.5888 155.546 33.5888 155.546C33.5888 155.546 30.8856 152.586 29.8943 152.856C28.9848 153.1 29.8943 154.936 29.8943 154.936C29.8943 154.936 28.8692 153.917 27.6274 153.917C26.3856 153.917 28.5908 157.722 28.5908 157.722L37.6244 157.795C37.6244 157.795 35.2015 154.573 33.6765 154.078Z" fill="#5AA382"/>
<path d="M25.2114 152.766C23.1122 153.292 24.6054 156.111 24.4773 155.983C24.3491 155.854 23.2249 153.941 21.4012 153.941C19.5775 153.941 21.9609 156.524 21.9609 156.524C21.9609 156.524 18.0795 155.31 17.776 156.585C17.5236 157.646 18.9321 157.721 18.9321 157.721H29.8943C29.8943 157.721 27.8019 152.119 25.2114 152.766Z" fill="#468E6B"/>
<path d="M146.664 158.55C146.664 158.55 149.045 155.966 147.223 155.966C145.401 155.966 144.275 157.88 144.148 158.008C144.021 158.137 145.512 155.318 143.413 154.792C140.822 154.144 138.731 159.747 138.731 159.747H149.691C149.691 159.747 151.102 159.668 150.847 158.61C150.543 157.33 146.664 158.55 146.664 158.55Z" fill="#468E6B"/>
<g opacity="0.5">
<path d="M86.8771 161.058C109.525 161.058 127.885 160.027 127.885 158.756C127.885 157.485 109.525 156.454 86.8771 156.454C64.229 156.454 45.869 157.485 45.869 158.756C45.869 160.027 64.229 161.058 86.8771 161.058Z" fill="#5AA382"/>
</g>
<path d="M144.942 79.6028H25.6593V79.7958H144.942V79.6028Z" fill="#1D1D1B"/>
<path d="M140.359 79.6993H140.166V153.724H140.359V79.6993Z" fill="#1D1D1B"/>
<path d="M30.4655 79.7031L30.2728 79.7036L30.4156 147.988L30.6083 147.987L30.4655 79.7031Z" fill="#1D1D1B"/>
<path d="M26.9175 79.6993H26.7249V125.213H26.9175V79.6993Z" fill="#1D1D1B"/>
<path d="M143.94 96.5H143.747V146.112H143.94V96.5Z" fill="#1D1D1B"/>
</g>
<defs>
<clipPath id="clip0_408_2088">
<rect width="240" height="193" fill="white"/>
</clipPath>
</defs>
</svg>
