<svg width="13" height="13" viewBox="0 0 13 13" fill="none" xmlns="http://www.w3.org/2000/svg">
<path d="M5.34131 10.1494C2.65625 10.1494 0.459961 7.95312 0.459961 5.26807C0.459961 2.57666 2.6626 0.386719 5.34131 0.386719C8.02637 0.386719 10.2227 2.58301 10.2227 5.26807C10.2227 6.37891 9.84814 7.40088 9.21973 8.22607L12.2095 11.2222C12.3491 11.3555 12.4126 11.5396 12.4126 11.73C12.4126 12.1362 12.1206 12.4536 11.708 12.4536C11.5112 12.4536 11.3271 12.3838 11.1875 12.2441L8.17871 9.23535C7.37891 9.80664 6.40137 10.1494 5.34131 10.1494ZM5.34131 9.0957C7.43604 9.0957 9.16895 7.36279 9.16895 5.26807C9.16895 3.17334 7.43604 1.44043 5.34131 1.44043C3.24658 1.44043 1.51367 3.17334 1.51367 5.26807C1.51367 7.36279 3.24658 9.0957 5.34131 9.0957Z" fill="#3C3C43" fill-opacity="0.6"/>
</svg>
