<svg width="29" height="29" viewBox="0 0 29 29" fill="none" xmlns="http://www.w3.org/2000/svg">
<g clip-path="url(#clip0_368_299)">
<path d="M2.41667 9.66665C2.41667 8.38477 2.9259 7.15539 3.83232 6.24896C4.73875 5.34254 5.96813 4.83331 7.25 4.83331H21.75C23.0319 4.83331 24.2613 5.34254 25.1677 6.24896C26.0741 7.15539 26.5833 8.38477 26.5833 9.66665V19.3333C26.5833 20.6152 26.0741 21.8446 25.1677 22.751C24.2613 23.6574 23.0319 24.1666 21.75 24.1666H7.25C5.96813 24.1666 4.73875 23.6574 3.83232 22.751C2.9259 21.8446 2.41667 20.6152 2.41667 19.3333V9.66665Z" stroke="#999999" stroke-width="1.6" stroke-linecap="round" stroke-linejoin="round"/>
<path d="M12.0833 10.875L18.125 14.5L12.0833 18.125V10.875Z" stroke="#999999" stroke-width="1.6" stroke-linecap="round" stroke-linejoin="round"/>
</g>
<defs>
<clipPath id="clip0_368_299">
<rect width="29" height="29" fill="white"/>
</clipPath>
</defs>
</svg>
